<?xml version="1.0" encoding="UTF-8" standalone="no"?>
<svg
   xmlns:dc="http://purl.org/dc/elements/1.1/"
   xmlns:cc="http://creativecommons.org/ns#"
   xmlns:rdf="http://www.w3.org/1999/02/22-rdf-syntax-ns#"
   xmlns:svg="http://www.w3.org/2000/svg"
   xmlns="http://www.w3.org/2000/svg"
   xmlns:sodipodi="http://sodipodi.sourceforge.net/DTD/sodipodi-0.dtd"
   xmlns:inkscape="http://www.inkscape.org/namespaces/inkscape"
   width="32mm"
   height="32mm"
   viewBox="0 0 32 32"
   version="1.1"
   id="svg838"
   inkscape:version="1.0.2-2 (e86c870879, 2021-01-15)"
   sodipodi:docname="target.svg">
  <defs
     id="defs832" />
  <sodipodi:namedview
     id="base"
     pagecolor="#ffffff"
     bordercolor="#666666"
     borderopacity="1.0"
     inkscape:pageopacity="0.0"
     inkscape:pageshadow="2"
     inkscape:zoom="2.8"
     inkscape:cx="56.06527"
     inkscape:cy="106.96308"
     inkscape:document-units="mm"
     inkscape:current-layer="layer1"
     inkscape:document-rotation="0"
     showgrid="false"
     inkscape:window-width="1622"
     inkscape:window-height="1228"
     inkscape:window-x="493"
     inkscape:window-y="459"
     inkscape:window-maximized="0" />
  <metadata
     id="metadata835">
    <rdf:RDF>
      <cc:Work
         rdf:about="">
        <dc:format>image/svg+xml</dc:format>
        <dc:type
           rdf:resource="http://purl.org/dc/dcmitype/StillImage" />
        <dc:title />
      </cc:Work>
    </rdf:RDF>
  </metadata>
  <g
     inkscape:label="Layer 1"
     inkscape:groupmode="layer"
     id="layer1">
    <circle
       style="fill:none;fill-opacity:0.07;stroke:#32CD32;stroke-width:1.47582;stroke-miterlimit:4;stroke-dasharray:none;stroke-opacity:0.959016"
       id="path1403"
       cx="16"
       cy="16"
       r="15.262089" />
    <ellipse
       style="fill:none;fill-opacity:0.979508;stroke:#32CD32;stroke-width:2;stroke-miterlimit:4;stroke-dasharray:none"
       id="path1405"
       cx="16.000002"
       cy="16.000004"
       rx="6"
       ry="6" />
    <path
       style="fill:#32CD32;fill-opacity:0.2;stroke:none;stroke-width:0.8;stroke-miterlimit:4;stroke-dasharray:none;stroke-opacity:0.409836"
       d="M 13.583517,30.922051 C 10.417649,30.346772 7.6389396,28.885451 5.3859331,26.610949 -0.48533082,20.683666 -0.45858029,11.263954 5.4462834,5.3596666 7.3325133,3.473621 9.8959025,2.0096686 12.432522,1.3698236 c 1.400642,-0.3533024 4.343544,-0.48266768 5.894681,-0.259121 2.009295,0.289575 4.39386,1.2366591 6.232713,2.4754626 1.135948,0.7652679 3.037742,2.6591737 3.844244,3.8283013 0.926195,1.3426277 1.814897,3.2682295 2.241732,4.8572835 C 30.966501,13.465339 31,13.819649 31,16.017035 c 0,2.197384 -0.0335,2.551694 -0.354108,3.745283 -1.238114,4.609337 -4.624555,8.498241 -8.891052,10.210256 -1.988913,0.79809 -2.913372,0.974843 -5.334997,1.020038 -1.221011,0.0228 -2.497358,-0.009 -2.836326,-0.07056 z m 3.658878,-8.905691 c 1.745101,-0.326379 3.522546,-1.690747 4.283087,-3.287698 1.139813,-2.393334 0.675252,-5.15789 -1.178994,-7.016073 -3.827856,-3.8359814 -10.3596484,-1.124367 -10.3815961,4.309825 -0.015534,3.846247 3.4591391,6.70808 7.2775031,5.993946 z"
       id="path1407" />
   
    
  </g>
</svg>
