<?xml version="1.0" encoding="UTF-8" standalone="no"?>
<svg
   xmlns:dc="http://purl.org/dc/elements/1.1/"
   xmlns:cc="http://creativecommons.org/ns#"
   xmlns:rdf="http://www.w3.org/1999/02/22-rdf-syntax-ns#"
   xmlns:svg="http://www.w3.org/2000/svg"
   xmlns="http://www.w3.org/2000/svg"
   xmlns:sodipodi="http://sodipodi.sourceforge.net/DTD/sodipodi-0.dtd"
   xmlns:inkscape="http://www.inkscape.org/namespaces/inkscape"
   id="Capa_1"
   enable-background="new 0 0 512.498 512.498"
   height="512"
   viewBox="0 0 512.498 512.498"
   width="512"
   version="1.1"
   sodipodi:docname="winchhunt.svg"
   inkscape:version="1.0.2-2 (e86c870879, 2021-01-15)"
   inkscape:export-filename="C:\Users\j.haverkort\Desktop\Icons\winchhunt16.png"
   inkscape:export-xdpi="3"
   inkscape:export-ydpi="3">
  <metadata
     id="metadata13">
    <rdf:RDF>
      <cc:Work
         rdf:about="">
        <dc:format>image/svg+xml</dc:format>
        <dc:type
           rdf:resource="http://purl.org/dc/dcmitype/StillImage" />
        <dc:title></dc:title>
      </cc:Work>
    </rdf:RDF>
  </metadata>
  <defs
     id="defs11">
    <filter
       inkscape:collect="always"
       style="color-interpolation-filters:sRGB"
       id="filter1439"
       x="-0.029475759"
       width="1.0589515"
       y="-0.025085753"
       height="1.0501715">
      <feGaussianBlur
         inkscape:collect="always"
         stdDeviation="4.9174049"
         id="feGaussianBlur1441" />
    </filter>
  </defs>
  <sodipodi:namedview
     pagecolor="#ffffff"
     bordercolor="#666666"
     borderopacity="1"
     objecttolerance="10"
     gridtolerance="10"
     guidetolerance="10"
     inkscape:pageopacity="0"
     inkscape:pageshadow="2"
     inkscape:window-width="2918"
     inkscape:window-height="1736"
     id="namedview9"
     showgrid="false"
     inkscape:zoom="1.96875"
     inkscape:cx="243.80952"
     inkscape:cy="256"
     inkscape:window-x="343"
     inkscape:window-y="226"
     inkscape:window-maximized="0"
     inkscape:current-layer="layer1" />
  <g
     inkscape:groupmode="layer"
     id="layer1"
     inkscape:label="Background"
     style="display:inline">
    <ellipse
       style="opacity:1;fill:#ffcc00;fill-opacity:0.795082;stroke:none;stroke-width:0;stroke-miterlimit:4;stroke-dasharray:none;filter:url(#filter1439)"
       id="path981"
       cx="256.24899"
       cy="256.24899"
       rx="200.19453"
       ry="235.22858" />
  </g>
  <g
     inkscape:groupmode="layer"
     id="layer2"
     inkscape:label="Foreground"
     style="display:inline">
    <g
       id="g6"
       transform="matrix(0.77853429,0,0,0.78125076,56.750367,56.054469)">
      <g
         id="g4">
        <path
           d="m 256.249,120 c -33.08,0 -60,26.92 -60,60 0,33.08 26.92,60 60,60 33.08,0 60,-26.92 60,-60 0,-33.08 -26.92,-60 -60,-60 z m 0,0 c -33.08,0 -60,26.92 -60,60 0,33.08 26.92,60 60,60 33.08,0 60,-26.92 60,-60 0,-33.08 -26.92,-60 -60,-60 z m 0,-120 c -99.25,0 -180,80.75 -180,180 0,124.02 161.61,318.88 168.49,327.12 6,7.18 17.03,7.16 23.02,0 6.88,-8.24 168.49,-203.1 168.49,-327.12 0,-99.25 -80.75,-180 -180,-180 z m 105,195 h -16.26 c -6.33,37.63 -36.11,67.41 -73.74,73.74 V 285 c 0,8.28 -6.72,15 -15,15 -8.28,0 -15,-6.72 -15,-15 v -16.26 c -37.63,-6.33 -67.41,-36.11 -73.74,-73.74 h -16.26 c -8.28,0 -15,-6.72 -15,-15 0,-8.28 6.72,-15 15,-15 h 16.26 c 6.33,-37.63 36.11,-67.41 73.74,-73.74 V 75 c 0,-8.28 6.72,-15 15,-15 8.28,0 15,6.72 15,15 v 16.26 c 37.63,6.33 67.41,36.11 73.74,73.74 h 16.26 c 8.28,0 15,6.72 15,15 0,8.28 -6.72,15 -15,15 z m -105,-75 c -33.08,0 -60,26.92 -60,60 0,33.08 26.92,60 60,60 33.08,0 60,-26.92 60,-60 0,-33.08 -26.92,-60 -60,-60 z m 0,0 c -33.08,0 -60,26.92 -60,60 0,33.08 26.92,60 60,60 33.08,0 60,-26.92 60,-60 0,-33.08 -26.92,-60 -60,-60 z m 0,0 c -33.08,0 -60,26.92 -60,60 0,33.08 26.92,60 60,60 33.08,0 60,-26.92 60,-60 0,-33.08 -26.92,-60 -60,-60 z"
           id="path2" />
      </g>
    </g>
  </g>
</svg>
